<?xml version="1.0" encoding="UTF-8"?>
<svg width="116px" height="33px" viewBox="0 0 116 33" version="1.1" xmlns="http://www.w3.org/2000/svg" xmlns:xlink="http://www.w3.org/1999/xlink">
    <title>Group</title>
    <defs>
        <path d="M11.7528904,0.547196279 C12.3243724,0.863381369 12.7841053,1.34218262 13.132089,1.98360003 C13.8183764,3.24859206 14.16152,5.11596125 14.16152,7.5857076 C14.16152,9.88578439 13.7909927,11.6862981 13.0499379,12.9872487 L12.9719553,13.1200477 L12.9061506,13.2248422 C12.1215243,14.4297122 10.7238008,15.0493596 8.71298022,15.0837845 L8.53396379,15.0853032 L8.44229317,15.085055 L8.44245881,16.1447899 L9.36239358,16.1447899 L9.4726927,16.146871 C10.4564416,16.184331 11.1987249,16.7275005 11.6995425,17.7763796 C12.1989333,18.8222705 12.5954277,20.3430583 12.8890255,22.3387432 L12.9237634,22.5805049 L13.5915202,27.1126986 L13.6196649,27.2892275 C13.9055968,28.9788797 14.5936501,30.1814972 15.683825,30.8970803 C15.8732508,31.021418 16.0756546,31.1353136 16.2910364,31.2387669 L1.19816557,31.2387669 C0.566455512,31.2387669 0.0543533266,30.7221093 0.0543533266,30.0848921 L0.0543533266,15.6625928 C0.0543533266,8.43654889 4.93243391,2.35977443 11.5480503,0.600193322 L11.7528904,0.547196279 Z M30.5560132,0.0864058981 C31.1877233,0.0864058981 31.6998255,0.603076243 31.6998255,1.24029352 L31.6998255,15.6625928 C31.6998255,21.392298 28.6328357,26.3994243 24.0645254,29.1046532 C24.0129192,29.0498569 23.9648213,28.9901834 23.9194927,28.925576 C23.6375509,28.5237215 23.3957858,27.808277 23.1941974,26.7792424 L23.1627016,26.6141573 L22.227842,21.9006758 L22.1927152,21.7291916 C21.8117692,19.9706798 20.8737795,18.6304149 19.3787462,17.7083967 C17.8354859,16.756636 15.5502736,16.1750045 12.5231093,15.9635021 C16.4406161,15.6009267 19.2303558,14.6189514 20.8923283,13.0175763 C22.5543009,11.4162012 23.3852872,9.48246521 23.3852872,7.21636838 C23.3852872,4.55748143 22.2797786,2.57842353 20.0687616,1.27919468 C19.2348911,0.789199134 18.2374443,0.391602873 17.0764212,0.0864058981 L30.5560132,0.0864058981 Z" id="path-1"></path>
        <linearGradient x1="9.32713235%" y1="64.1198875%" x2="93.9381426%" y2="41.1471207%" id="linearGradient-3">
            <stop stop-color="#FFFFFF" stop-opacity="0.071951486" offset="0%"></stop>
            <stop stop-color="#FFFFFF" offset="100%"></stop>
        </linearGradient>
        <linearGradient x1="-20.4145175%" y1="82.5353384%" x2="93.9381426%" y2="27.0960542%" id="linearGradient-4">
            <stop stop-color="#FFFFFF" stop-opacity="0.071951486" offset="0%"></stop>
            <stop stop-color="#FFFFFF" offset="100%"></stop>
        </linearGradient>
        <linearGradient x1="32.7035001%" y1="73.7273832%" x2="93.9381426%" y2="19.4628064%" id="linearGradient-5">
            <stop stop-color="#FFFFFF" stop-opacity="0.071951486" offset="0%"></stop>
            <stop stop-color="#FFFFFF" offset="100%"></stop>
        </linearGradient>
    </defs>
    <g id="Symbols" stroke="none" stroke-width="1" fill="none" fill-rule="evenodd">
        <g id="Nav/Desktop/header" transform="translate(-40.000000, -26.000000)">
            <g id="Group" transform="translate(40.000000, 26.000000)">
                <g id="Simbolo-Raízes" transform="translate(0.000000, 0.540252)">
                    <mask id="mask-2" fill="white">
                        <use xlink:href="#path-1"></use>
                    </mask>
                    <use id="Shape" fill="#00BA82" xlink:href="#path-1"></use>
                    <path d="M-0.111123128,31.3251662 C4.0518271,27.4619615 10.2456558,24.6522818 18.4703629,22.8961273 C26.6950701,21.1399728 31.0497321,18.3440674 31.534349,14.5084113 L31.534349,31.3251662 L16.2181811,31.3251662 L-0.111123128,31.3251662 Z" id="Path-20" fill="url(#linearGradient-3)" opacity="0.35874721" style="mix-blend-mode: overlay;" mask="url(#mask-2)"></path>
                    <path d="M0.050416924,20.0311155 C4.37354074,16.9253755 10.3147388,14.611325 17.8740112,13.0889638 C26.5941826,11.3328093 31.2111737,8.53690393 31.7249844,4.70124775 L31.7249844,21.5180027 C30.593828,30.2706701 20.0453373,33.4218068 0.0795122465,30.9714128" id="Path" fill="url(#linearGradient-4)" opacity="0.415434338" style="mix-blend-mode: overlay;" mask="url(#mask-2)"></path>
                    <path d="M1.44191078,9.16753856 C6.07339719,6.77692549 11.5591503,4.94321094 17.8991701,3.66639494 C22.6621759,2.70717364 24.6773118,2.31214841 27.1247255,1.09889183 C33.6015034,-2.1118418 31.4897146,0.444354548 31.7501433,12.0954338 C32.010572,23.7465131 27.6209284,29.9000316 16.191525,31.2193606 C13.349974,31.5473691 7.97091682,30.7614945 0.0543533266,28.8617369 C-0.179767722,16.3305893 0.282751429,9.76585653 1.44191078,9.16753856 Z" id="Path" fill="url(#linearGradient-5)" opacity="0.34765625" style="mix-blend-mode: overlay;" mask="url(#mask-2)"></path>
                </g>
                <path d="M42.6405357,10.3315818 L42.6405357,10.0412947 C42.2307404,10.0324982 41.932113,10.0017101 41.7446534,9.94893065 C41.5571939,9.89615118 41.4264082,9.78839309 41.3522963,9.62565638 C41.2781844,9.46291967 41.2411284,9.20561974 41.2411284,8.85375659 L41.2411284,8.85375659 L41.2411284,5.81893689 L41.6988784,5.81893689 C42.5795023,5.81893689 43.1113643,6.3995111 43.2944643,7.5606595 L43.2944643,7.5606595 L43.5952715,7.5606595 C43.5429572,6.76017083 43.5168,6.13561373 43.5168,5.68698821 L43.5168,5.68698821 L43.5168,5.05363454 C43.5168,4.59621244 43.5298786,4.18277323 43.5560357,3.81331692 L43.5560357,3.81331692 L43.2552286,3.81331692 C43.159319,4.28833218 42.9914774,4.69737309 42.7517035,5.04043967 C42.5119297,5.38350624 42.160988,5.55503953 41.6988784,5.55503953 L41.6988784,5.55503953 L41.2411284,5.55503953 L41.2411284,2.22993273 C41.2411284,1.94844221 41.262926,1.74392175 41.3065213,1.61637136 C41.3501165,1.48882097 41.4329475,1.40305432 41.5550141,1.35907143 C41.6770808,1.31508853 41.8732594,1.29309709 42.1435499,1.29309709 L42.1435499,1.29309709 L42.5751428,1.29309709 C43.2029143,1.29309709 43.691181,1.4954184 44.0399429,1.90006103 C44.3887049,2.30470365 44.6502763,3.00403167 44.8246573,3.99804508 L44.8246573,3.99804508 L45.1254644,3.99804508 C45.0993073,3.74294429 45.0862287,3.4086743 45.0862287,2.99523509 C45.0862287,2.40586431 45.1167454,1.73732432 45.1777787,0.989615118 C44.6371977,1.01600485 43.7260572,1.02919972 42.4443571,1.02919972 C40.5436045,1.02919972 39.1223997,1.01600485 38.1807424,0.989615118 L38.1807424,0.989615118 L38.1807424,1.25351248 C38.468471,1.27110564 38.679908,1.30629196 38.8150532,1.35907143 C38.9501985,1.4118509 39.0417485,1.51301156 39.0897032,1.6625534 C39.137658,1.81209524 39.1616354,2.05400116 39.1616354,2.38827115 L39.1616354,2.38827115 L39.1616354,8.9329258 C39.1616354,9.26719579 39.137658,9.50910171 39.0897032,9.65864355 C39.0417485,9.80818539 38.9501985,9.90934605 38.8150532,9.96212552 C38.679908,10.014905 38.468471,10.0500913 38.1807424,10.0676845 L38.1807424,10.0676845 L38.1807424,10.3315818 L38.5992568,10.318387 C39.2619044,10.3007938 39.8112045,10.2919972 40.2471569,10.2919972 C40.7702998,10.2919972 41.5680927,10.3051921 42.6405357,10.3315818 L42.6405357,10.3315818 Z M48.4910171,10.51631 C49.4937076,10.51631 50.195591,10.1072691 50.5966673,9.28918724 L50.5966673,9.28918724 L50.5966673,10.4767254 C51.1110911,10.3535733 51.7475816,10.2919972 52.5061388,10.2919972 C52.7764293,10.2919972 53.0467198,10.3051921 53.3170103,10.3315818 L53.3170103,10.3315818 L53.3170103,10.0544896 C53.0118436,10.0544896 52.7960472,9.96212552 52.669621,9.77739737 C52.5431948,9.59266921 52.4799817,9.29798382 52.4799817,8.89334119 L52.4799817,8.89334119 L52.4799817,3.3646914 C51.9655578,3.4878435 51.3290673,3.54941956 50.5705101,3.54941956 C50.3089387,3.54941956 50.0386482,3.53622469 49.7596386,3.50983495 L49.7596386,3.50983495 L49.7596386,3.78692718 C50.0648053,3.78692718 50.2806018,3.87929126 50.407028,4.06401942 C50.5334542,4.24874757 50.5966673,4.54343296 50.5966673,4.94807559 L50.5966673,4.94807559 L50.5966673,8.40513107 C50.5966673,8.83616343 50.4724208,9.19902231 50.2239279,9.4937077 C49.9754351,9.78839309 49.6768077,9.93573578 49.3280457,9.93573578 C49.022879,9.93573578 48.8158016,9.84337171 48.7068135,9.65864355 C48.5978254,9.4739154 48.5433314,9.19682316 48.5433314,8.82736685 L48.5433314,8.82736685 L48.5433314,3.3646914 C48.0289075,3.4878435 47.392417,3.54941956 46.6338598,3.54941956 C46.3635693,3.54941956 46.0932788,3.53622469 45.8229883,3.50983495 L45.8229883,3.50983495 L45.8229883,3.78692718 C46.128155,3.78692718 46.3439514,3.87929126 46.4703776,4.06401942 C46.5968038,4.24874757 46.6600169,4.54343296 46.6600169,4.94807559 L46.6600169,4.94807559 L46.6600169,8.28637725 C46.6600169,8.7262062 46.6927134,9.08026849 46.7581062,9.34856415 C46.8234991,9.6168598 46.9259479,9.83457513 47.0654527,10.0017101 C47.3619003,10.3447767 47.8370885,10.51631 48.4910171,10.51631 Z M61.6131848,10.3315818 L61.6131848,10.0544896 C61.3080181,10.0544896 61.0922217,9.98631611 60.9657955,9.84996914 C60.8393693,9.71362217 60.7761562,9.46511882 60.7761562,9.10445909 L60.7761562,9.10445909 L60.7761562,5.55503953 C60.7761562,5.10641401 60.7456395,4.75015257 60.6846062,4.4862552 C60.6235728,4.22235784 60.5189442,4.00684166 60.3707204,3.83970666 C60.0742728,3.49664008 59.5947251,3.3251068 58.9320774,3.3251068 C57.8945107,3.3251068 57.1795487,3.73414771 56.7871916,4.55222954 L56.7871916,4.55222954 L56.7871916,3.3646914 C56.2902058,3.4878435 55.6537153,3.54941956 54.87772,3.54941956 C54.6161485,3.54941956 54.345858,3.53622469 54.0668485,3.50983495 L54.0668485,3.50983495 L54.0668485,3.78692718 C54.3807342,3.78692718 54.5987104,3.87929126 54.7207771,4.06401942 C54.8428438,4.24874757 54.9038771,4.54343296 54.9038771,4.94807559 L54.9038771,4.94807559 L54.9038771,9.10445909 C54.9038771,9.46511882 54.8428438,9.71362217 54.7207771,9.84996914 C54.5987104,9.98631611 54.3807342,10.0544896 54.0668485,10.0544896 L54.0668485,10.0544896 L54.0668485,10.3315818 C55.0085057,10.2963955 55.61012,10.2788024 55.8716915,10.2788024 C56.150701,10.2788024 56.691282,10.2963955 57.4934345,10.3315818 L57.4934345,10.3315818 L57.4934345,10.0544896 C57.231863,10.0544896 57.048763,9.98631611 56.9441344,9.84996914 C56.8395059,9.71362217 56.7871916,9.46511882 56.7871916,9.10445909 L56.7871916,9.10445909 L56.7871916,5.43628571 C56.7871916,5.00525335 56.9136178,4.64239448 57.1664702,4.34770908 C57.4193226,4.05302369 57.7244893,3.905681 58.0819702,3.905681 C58.3871369,3.905681 58.5985739,3.99804508 58.716281,4.18277323 C58.8339882,4.36750139 58.8928417,4.64019533 58.8928417,5.00085506 L58.8928417,5.00085506 L58.8928417,9.10445909 C58.8928417,9.46511882 58.8405274,9.71362217 58.7358989,9.84996914 C58.6312703,9.98631611 58.4481703,10.0544896 58.1865988,10.0544896 L58.1865988,10.0544896 L58.1865988,10.3315818 C59.0585036,10.2963955 59.6252418,10.2788024 59.8868132,10.2788024 C60.1658228,10.2788024 60.74128,10.2963955 61.6131848,10.3315818 L61.6131848,10.3315818 Z M65.1226018,10.51631 C65.9596304,10.51631 66.5263685,10.1204639 66.8228162,9.32877185 L66.8228162,9.32877185 L66.8228162,10.4635305 C67.3198019,10.3403784 67.9562925,10.2788024 68.7322878,10.2788024 C69.0025783,10.2788024 69.2728688,10.2919972 69.5431593,10.318387 L69.5431593,10.318387 L69.5431593,10.0412947 C69.2292735,10.0412947 69.0112973,9.94893065 68.8892306,9.7642025 C68.767164,9.57947434 68.7061306,9.28478895 68.7061306,8.88014633 L68.7061306,8.88014633 L68.7061306,-9.41326957e-15 C68.1917068,0.123152104 67.5552162,0.184728155 66.796659,0.184728155 C66.5350876,0.184728155 66.2647971,0.171533287 65.9857875,0.145143551 L65.9857875,0.145143551 L65.9857875,0.422235784 C66.2909542,0.422235784 66.5067507,0.514599861 66.6331769,0.699328017 C66.7596031,0.884056172 66.8228162,1.17874156 66.8228162,1.58338419 L66.8228162,1.58338419 L66.8228162,3.82651179 C66.4914923,3.49224179 66.0075852,3.3251068 65.3710946,3.3251068 C64.8043565,3.3251068 64.3008314,3.45925462 63.8605195,3.72755028 C63.4202076,3.99584593 63.0758052,4.39609027 62.8273123,4.92828329 C62.5788194,5.46047631 62.454573,6.11362228 62.454573,6.88772122 C62.4458539,8.1016491 62.683448,9.00989586 63.1673552,9.61246151 C63.6512623,10.2150272 64.3030112,10.51631 65.1226018,10.51631 Z M65.6588232,9.94893065 C65.257747,9.94893065 64.9504005,9.71142302 64.7367839,9.23640777 C64.5231672,8.76139251 64.4207184,7.98729357 64.4294374,6.91411096 C64.4207184,5.84972492 64.542785,5.04923625 64.7956374,4.51264494 C65.0484898,3.97605363 65.4059708,3.70775798 65.8680804,3.70775798 C66.2865947,3.70775798 66.60484,3.85729982 66.8228162,4.1563835 L66.8228162,4.1563835 L66.8228162,8.77458738 C66.7792209,9.13524711 66.6462554,9.42113592 66.4239197,9.63225381 C66.201584,9.84337171 65.9465518,9.94893065 65.6588232,9.94893065 Z M73.641112,10.51631 C74.6438025,10.51631 75.4285169,10.2304212 75.995255,9.65864355 C76.5619932,9.08686593 76.8453622,8.17642002 76.8453622,6.92730583 C76.8453622,5.67819163 76.5619932,4.76554658 75.995255,4.18937067 C75.4285169,3.61319475 74.6438025,3.3251068 73.641112,3.3251068 C72.6471405,3.3251068 71.8646059,3.61319475 71.2935082,4.18937067 C70.7224105,4.76554658 70.4368617,5.67819163 70.4368617,6.92730583 C70.4368617,8.17642002 70.7224105,9.08686593 71.2935082,9.65864355 C71.8646059,10.2304212 72.6471405,10.51631 73.641112,10.51631 Z M73.641112,10.2524126 C73.2661929,10.2524126 72.9675655,9.97971868 72.7452297,9.43433079 C72.522894,8.8889429 72.4117261,8.05326792 72.4117261,6.92730583 C72.4117261,5.80134374 72.522894,4.9634696 72.7452297,4.41368343 C72.9675655,3.86389725 73.2661929,3.58900416 73.641112,3.58900416 C74.016031,3.58900416 74.3146584,3.8616981 74.5369942,4.40708599 C74.7593299,4.95247388 74.8704978,5.79254716 74.8704978,6.92730583 C74.8704978,8.06206449 74.7615097,8.89993863 74.5435335,9.44092823 C74.3255573,9.98191782 74.0247501,10.2524126 73.641112,10.2524126 Z" id="Fundo" fill="#FFFFFF" fill-rule="nonzero"></path>
                <path d="M52.0626591,32.1842795 C52.8366267,32.1842795 53.4962582,32.06449 54.0415536,31.8249111 C54.586849,31.5853322 55.096964,31.1904706 55.5718987,30.6403264 L55.5718987,30.6403264 L55.202505,30.3208879 C55.0090131,30.5338469 54.8375089,30.6846929 54.6879925,30.7734258 C54.538476,30.8621588 54.3581767,30.9153985 54.1470946,30.9331451 C53.8128813,30.9331451 53.5534263,30.7911724 53.3687294,30.507227 C53.1840326,30.2232816 53.0213235,29.7263772 52.8806021,29.0165137 L52.8806021,29.0165137 L52.2737411,26.2746661 C52.0450689,25.1743777 51.5437489,24.3491614 50.7697813,23.7990172 C49.9958137,23.248873 48.817272,22.9028146 47.2341564,22.7608419 C49.3449772,22.5123896 50.8577322,21.9090057 51.7724212,20.95069 C52.6871102,19.9923743 53.1444547,18.8832126 53.1444547,17.6232049 C53.1444547,16.1324917 52.5331962,14.9878368 51.3106791,14.1892404 C50.0881621,13.390644 48.2631816,12.9913458 45.8357376,12.9913458 C45.3783931,12.9913458 44.9738191,13.0002191 44.6220156,13.0179656 L44.6220156,13.0179656 L41.6932517,13.0445855 C39.9166442,13.0445855 38.579791,13.0179656 37.6826921,12.9647259 L37.6826921,12.9647259 L37.6826921,13.4971235 C38.2631679,13.5326167 38.6897296,13.603603 38.9623773,13.7100825 C39.2350249,13.8165621 39.4197218,14.0206478 39.5164677,14.3223398 C39.6132137,14.6240318 39.6615867,15.1120629 39.6615867,15.7864332 L39.6615867,15.7864332 L39.6615867,28.9898939 C39.6615867,29.6642642 39.6132137,30.1522953 39.5164677,30.4539873 C39.4197218,30.7556793 39.2350249,30.959765 38.9623773,31.0662445 C38.6897296,31.172724 38.2631679,31.2437104 37.6826921,31.2792036 L37.6826921,31.2792036 L37.6826921,31.8116012 C38.579791,31.7583614 39.9694147,31.7317415 41.8515633,31.7317415 L42.0056348,31.7318149 C43.6379512,31.7333793 44.9146521,31.7599747 45.8357376,31.8116012 L45.8357376,31.8116012 L45.8357376,31.2792036 C45.2376717,31.2437104 44.8067124,31.172724 44.5428598,31.0662445 C44.2790072,30.959765 44.098708,30.7556793 44.001962,30.4539873 C43.905216,30.1522953 43.8568431,29.6642642 43.8568431,28.9898939 L43.8568431,28.9898939 L43.8568431,22.8673214 L45.571885,22.8673214 C46.3282625,22.8673214 46.8691603,23.17345 47.1945785,23.7857073 C47.5199967,24.3979645 47.797042,25.3518435 48.0257142,26.6473444 L48.0257142,26.6473444 L48.5006489,29.3093324 C48.6765506,30.356381 49.0591369,31.0973011 49.6484077,31.5320924 C50.2376785,31.9668838 51.042429,32.1842795 52.0626591,32.1842795 Z M44.9914093,22.3349238 L43.8568431,22.3349238 L43.8568431,15.7864332 C43.8568431,15.1475561 43.9008185,14.6683982 43.9887694,14.3489597 C44.0767202,14.0295211 44.2306343,13.8076888 44.4505114,13.6834627 C44.6703886,13.5592365 45.0177945,13.4971235 45.4927292,13.4971235 C46.6536807,13.4971235 47.4892139,13.8698018 47.999329,14.6151585 C48.509444,15.3605151 48.7645015,16.4608035 48.7645015,17.9160236 C48.7645015,19.318004 48.4962514,20.4049824 47.9597511,21.176959 C47.4232508,21.9489355 46.4338035,22.3349238 44.9914093,22.3349238 L44.9914093,22.3349238 Z M66.0292569,31.9979403 C67.1726182,31.9979403 68.1400777,31.6696285 68.9316355,31.0130048 L68.9316355,31.0130048 L68.6677829,30.5604668 C68.2983893,30.8621588 67.9817662,31.0130048 67.7179136,31.0130048 C67.4892413,31.0130048 67.3353273,30.9242718 67.2561715,30.746806 C67.1770157,30.5693401 67.1374378,30.2676481 67.1374378,29.84173 L67.1374378,29.84173 L67.1374378,22.6011226 C67.1374378,21.6250603 67.0714747,20.8530838 66.9395484,20.285193 C66.8076221,19.7173022 66.548167,19.2381444 66.1611832,18.8477194 C65.739019,18.4218014 65.2113138,18.1201094 64.5780676,17.9426435 C63.9448213,17.7651776 63.1972389,17.6764447 62.3353204,17.6764447 C61.5085823,17.6764447 60.7478073,17.7563044 60.0529954,17.9160236 C59.3581836,18.0757429 58.7733103,18.2975753 58.2983756,18.5815206 C57.8058507,18.8832126 57.4408546,19.2070878 57.2033873,19.5531463 C56.9659199,19.8992047 56.8471863,20.3206862 56.8471863,20.8175906 C56.8471863,21.403228 57.0142929,21.8912591 57.3485062,22.281684 C57.6827195,22.6721089 58.1576542,22.8673214 58.7733103,22.8673214 C59.353786,22.8673214 59.8463109,22.6898555 60.2508849,22.3349238 C60.6554589,21.979992 60.8577459,21.5008342 60.8577459,20.8974502 C60.8577459,20.4182924 60.721422,20.0012476 60.4487743,19.6463159 C60.1761266,19.2913841 59.7935404,19.0251853 59.3010155,18.8477194 C59.7407698,18.4218014 60.3828112,18.2088423 61.2271395,18.2088423 C61.9483366,18.2088423 62.4804394,18.4173647 62.8234478,18.8344095 C63.1664561,19.2514543 63.3379603,19.832655 63.3379603,20.5780117 L63.3379603,20.5780117 L63.3379603,22.6543623 C63.3379603,23.1335202 63.1136856,23.5106352 62.6651362,23.7857073 C62.2165868,24.0607793 61.5085823,24.366908 60.5411227,24.7040931 C59.6264337,25.0235317 58.8744538,25.3252237 58.285183,25.6091691 C57.6959121,25.8931144 57.1945922,26.2968493 56.7812231,26.8203736 C56.367854,27.3438979 56.1611695,28.0049583 56.1611695,28.8035547 C56.1611695,29.7618704 56.4382147,30.5338469 56.9923052,31.1194843 C57.5463957,31.7051217 58.3863265,31.9979403 59.5120976,31.9979403 C61.2183444,31.9979403 62.5112222,31.2792036 63.3907309,29.84173 C63.408321,30.4983537 63.610608,31.0218781 63.9975918,31.412303 C64.3845757,31.8027279 65.0617973,31.9979403 66.0292569,31.9979403 Z M61.5437626,30.294268 C61.0512378,30.294268 60.6554589,30.1212388 60.3564259,29.7751803 C60.057393,29.4291219 59.9078765,28.8922876 59.9078765,28.1646776 C59.9078765,27.330588 60.0837782,26.6917109 60.4355817,26.2480462 C60.7873852,25.8043815 61.3062953,25.3607168 61.9923121,24.9170522 C62.6783288,24.4911341 63.1268783,24.1007092 63.3379603,23.7457774 L63.3379603,23.7457774 L63.3379603,29.2028529 C62.8278453,29.930463 62.2297794,30.294268 61.5437626,30.294268 Z M71.4758763,16.7558849 C72.1929927,16.3475789 72.9967996,15.9679246 73.8872971,15.6169222 C74.1715177,15.496749 74.4391771,15.3758325 74.6902753,15.2541727 C74.9413735,15.132513 75.1569927,15.0053513 75.3371328,14.8726876 C75.5900178,14.6624888 75.7499064,14.422052 75.8168009,14.1513776 C75.8964318,13.8291449 75.8434462,13.5556964 75.6578415,13.3310315 C75.5226844,13.1190564 75.322681,12.979758 75.0578319,12.9131338 C74.7046984,12.8243076 74.3700949,12.9044262 74.054021,13.1534923 C73.8738808,13.2861559 73.7118298,13.440483 73.567868,13.6164734 C73.4239061,13.7924639 73.2205752,14.059622 72.9578752,14.4179478 C72.3564156,15.2797535 71.8073846,15.9836156 71.3107822,16.5295341 L71.3107822,16.5295341 L71.4758763,16.7558849 Z M77.2254024,31.8116012 L77.2254024,31.2525837 C76.6097463,31.2525837 76.1743895,31.1150476 75.919332,30.8399755 C75.6642745,30.5649034 75.5367457,30.0635624 75.5367457,29.3359523 L75.5367457,29.3359523 L75.5367457,17.7563044 C74.5341058,18.0047566 73.2500232,18.1289827 71.6844977,18.1289827 C71.1567925,18.1289827 70.6114971,18.1023628 70.0486116,18.049123 L70.0486116,18.049123 L70.0486116,18.6081405 C70.6818578,18.6081405 71.1216122,18.7944797 71.3678746,19.167158 C71.614137,19.5398363 71.7372682,20.134347 71.7372682,20.95069 L71.7372682,20.95069 L71.7372682,29.3359523 C71.7372682,30.0635624 71.614137,30.5649034 71.3678746,30.8399755 C71.1216122,31.1150476 70.6818578,31.2525837 70.0486116,31.2525837 L70.0486116,31.2525837 L70.0486116,31.8116012 C71.9483503,31.7406148 73.1708674,31.7051217 73.7161628,31.7051217 C74.2966385,31.7051217 75.466385,31.7406148 77.2254024,31.8116012 L77.2254024,31.8116012 Z M78.8964689,31.9447006 C80.831388,31.8559676 82.660766,31.8116012 84.384603,31.8116012 C86.3371123,31.8116012 88.025769,31.8470943 89.450573,31.9180807 C89.3802124,30.9242718 89.345032,29.1673597 89.345032,26.6473444 L89.345032,26.6473444 L88.7909415,26.6473444 C88.6502201,28.3155236 88.1928756,29.5267281 87.418908,30.2809581 C86.6449404,31.035188 85.695071,31.412303 84.5692999,31.412303 L84.5692999,31.412303 L83.1972663,31.412303 L89.7935814,17.9160236 C87.8586623,18.0047566 86.0292843,18.049123 84.3054473,18.049123 C82.352938,18.049123 80.6642813,18.0136299 79.2394773,17.9426435 C79.309838,18.9364524 79.3450183,20.6933645 79.3450183,23.2133798 L79.3450183,23.2133798 L79.8991088,23.2133798 C80.127781,20.0367408 81.4998146,18.4484212 84.0152094,18.4484212 L84.0152094,18.4484212 L85.492784,18.4484212 L78.8964689,31.9447006 Z M98.0081925,32.1842795 C99.3626359,32.1842795 100.492805,31.7805446 101.398698,30.9730749 C102.304592,30.1656052 102.933441,29.1851063 103.285245,28.0315782 L103.285245,28.0315782 L102.81031,27.8718589 C101.930801,29.2915858 100.76985,30.0014493 99.3274555,30.0014493 C98.7293896,30.0014493 98.1709016,29.8239834 97.6519915,29.4690517 C97.1330814,29.11412 96.7109172,28.5462292 96.385499,27.7653794 C96.0600808,26.9845295 95.8973717,26.0084673 95.8973717,24.8371925 C95.8973717,24.2693017 95.9061668,23.852257 95.9237569,23.5860581 L95.9237569,23.5860581 L103.338015,23.5860581 C103.338015,19.6463159 101.684539,17.6764447 98.3775861,17.6764447 C96.4250769,17.6764447 94.8595514,18.3108852 93.6810098,19.5797662 C92.5024682,20.8486471 91.9131973,22.6809822 91.9131973,25.0767714 C91.9131973,27.4193209 92.4628903,29.189543 93.5622761,30.3874376 C94.661662,31.5853322 96.1436341,32.1842795 98.0081925,32.1842795 Z M100.013472,23.0802804 L95.8709864,23.0802804 C95.9765274,21.4298478 96.2359825,20.20977 96.6493516,19.4200469 C97.0627207,18.6303238 97.5860283,18.2354622 98.2192746,18.2354622 C98.8349307,18.2354622 99.2966727,18.6924368 99.6045008,19.606386 C99.9123288,20.5203353 100.048653,21.6783001 100.013472,23.0802804 L100.013472,23.0802804 Z M110.813839,32.1842795 C111.728528,32.1842795 112.564061,32.0245602 113.320439,31.7051217 C114.076816,31.3856831 114.67928,30.9242718 115.127829,30.3208879 C115.576378,29.7175039 115.800653,29.025387 115.800653,28.2445372 C115.800653,27.2862215 115.545596,26.4876251 115.035481,25.848748 C114.525366,25.2098708 113.733808,24.4822608 112.660807,23.6659178 L112.660807,23.6659178 L111.895635,23.1069003 C111.033716,22.4857698 110.40047,21.9578088 109.995896,21.5230174 C109.591322,21.088226 109.389035,20.5691384 109.389035,19.9657544 C109.389035,19.4333568 109.560539,19.016312 109.903547,18.71462 C110.246556,18.4129281 110.681913,18.2620821 111.209618,18.2620821 C112.229848,18.2620821 113.008213,18.6569436 113.544713,19.4466668 C114.081214,20.2363899 114.42862,21.2168888 114.586931,22.3881635 L114.586931,22.3881635 L115.141022,22.3881635 C115.141022,20.1698402 115.176202,18.6081405 115.246563,17.7030646 L115.246563,17.7030646 L114.692472,17.7030646 C114.657292,18.0225032 114.582534,18.2665187 114.468197,18.4351113 C114.353861,18.6037039 114.217537,18.6880002 114.059226,18.6880002 C113.918505,18.6880002 113.760193,18.6258871 113.584291,18.501661 C113.285258,18.288702 112.854299,18.0979261 112.291413,17.9293336 C111.728528,17.760741 111.112872,17.6764447 110.444445,17.6764447 C109.177953,17.6764447 108.104952,18.0047566 107.225443,18.6613803 C106.345935,19.318004 105.90618,20.2142066 105.90618,21.3499882 C105.90618,22.0066119 106.051299,22.6011226 106.341537,23.1335202 C106.631775,23.6659178 106.983579,24.127329 107.396948,24.517754 C107.810317,24.9081789 108.41278,25.4228299 109.204338,26.061707 C109.872765,26.5941046 110.374085,27.0111494 110.708298,27.3128414 C111.042511,27.6145334 111.319556,27.9605918 111.539434,28.3510167 C111.759311,28.7414416 111.869249,29.1851063 111.869249,29.6820107 C111.869249,30.3208879 111.68895,30.7956091 111.328351,31.1061743 C110.967753,31.4167396 110.532396,31.5720223 110.022281,31.5720223 C107.999411,31.5720223 106.812074,29.9393363 106.460271,26.6739643 L106.460271,26.6739643 L105.90618,26.6739643 C105.90618,29.2117262 105.871,30.9863849 105.800639,31.9979403 L105.800639,31.9979403 L106.35473,31.9979403 C106.425091,31.6607552 106.526234,31.4078663 106.65816,31.2392737 C106.790087,31.0706812 106.944001,31.0130048 107.119902,31.0662445 C107.366165,31.1549775 107.770739,31.3413166 108.333624,31.625262 C109.019641,31.9979403 109.846379,32.1842795 110.813839,32.1842795 Z" id="Raízes" fill="#FFFFFF" fill-rule="nonzero"></path>
            </g>
        </g>
    </g>
</svg>