<?xml version="1.0" encoding="UTF-8"?>
<svg width="72px" height="68px" viewBox="0 0 72 68" version="1.1" xmlns="http://www.w3.org/2000/svg" xmlns:xlink="http://www.w3.org/1999/xlink">
    <title>Group 5</title>
    <g id="Landig-pages" stroke="none" stroke-width="1" fill="none" fill-rule="evenodd">
        <g id="sobre" transform="translate(-816.000000, -1679.000000)" fill-rule="nonzero" stroke-width="3">
            <g id="Group-5" transform="translate(816.000000, 1679.000000)">
                <path d="M14.5,1.5 L14.5,14.5 L1.5,14.5 L1.5,1.5 L14.5,1.5 Z" id="Rectangle" stroke="#FFFFFF" transform="translate(8.000000, 8.000000) rotate(-360.000000) translate(-8.000000, -8.000000) "></path>
                <path d="M42.5,1.5 L42.5,14.5 L29.5,14.5 L29.5,1.5 L42.5,1.5 Z" id="Rectangle-Copy-6" stroke="#00BA82" transform="translate(36.000000, 8.000000) rotate(-360.000000) translate(-36.000000, -8.000000) "></path>
                <path d="M70.5,1.5 L70.5,14.5 L57.5,14.5 L57.5,1.5 L70.5,1.5 Z" id="Rectangle-Copy-7" stroke="#FFFFFF" transform="translate(64.000000, 8.000000) rotate(-360.000000) translate(-64.000000, -8.000000) "></path>
                <path d="M14.5,27.5 L14.5,40.5 L1.5,40.5 L1.5,27.5 L14.5,27.5 Z" id="Rectangle-Copy-10" stroke="#00BA82" transform="translate(8.000000, 34.000000) rotate(-360.000000) translate(-8.000000, -34.000000) "></path>
                <path d="M42.5,27.5 L42.5,40.5 L29.5,40.5 L29.5,27.5 L42.5,27.5 Z" id="Rectangle-Copy-9" stroke="#FFFFFF" transform="translate(36.000000, 34.000000) rotate(-360.000000) translate(-36.000000, -34.000000) "></path>
                <path d="M70.5,27.5 L70.5,40.5 L57.5,40.5 L57.5,27.5 L70.5,27.5 Z" id="Rectangle-Copy-8" stroke="#00BA82" transform="translate(64.000000, 34.000000) rotate(-360.000000) translate(-64.000000, -34.000000) "></path>
                <path d="M14.5,53.5 L14.5,66.5 L1.5,66.5 L1.5,53.5 L14.5,53.5 Z" id="Rectangle-Copy-13" stroke="#FFFFFF" transform="translate(8.000000, 60.000000) rotate(-360.000000) translate(-8.000000, -60.000000) "></path>
                <path d="M42.5,53.5 L42.5,66.5 L29.5,66.5 L29.5,53.5 L42.5,53.5 Z" id="Rectangle-Copy-12" stroke="#00BA82" transform="translate(36.000000, 60.000000) rotate(-360.000000) translate(-36.000000, -60.000000) "></path>
                <path d="M70.5,53.5 L70.5,66.5 L57.5,66.5 L57.5,53.5 L70.5,53.5 Z" id="Rectangle-Copy-11" stroke="#FFFFFF" transform="translate(64.000000, 60.000000) rotate(-360.000000) translate(-64.000000, -60.000000) "></path>
            </g>
        </g>
    </g>
</svg>